<svg width="27" height="24" viewBox="0 0 27 24" fill="none" xmlns="http://www.w3.org/2000/svg">
<path d="M19.3541 0C23.9526 0 26.6667 2.64612 26.6667 7.17573H21.0252V7.22196C18.4069 7.22196 16.2844 9.29132 16.2844 11.844C16.2844 14.3967 18.4069 16.4661 21.0252 16.4661H26.6667V16.882C26.6667 21.3539 23.9526 24 19.3541 24H7.31259C2.71407 24 0 21.3539 0 16.882V7.11796C0 2.64612 2.71407 0 7.31259 0H19.3541ZM25.6711 9.16322C26.2209 9.16322 26.6667 9.59778 26.6667 10.1338V13.5079C26.6603 14.0414 26.2183 14.4723 25.6711 14.4786H21.1319C19.8064 14.496 18.6473 13.6112 18.3467 12.3524C18.1961 11.5711 18.4075 10.7648 18.9241 10.1496C19.4407 9.53449 20.2098 9.17343 21.0252 9.16322H25.6711ZM21.6652 10.7232H21.2267C20.9574 10.7201 20.6981 10.8222 20.5066 11.0067C20.3151 11.1912 20.2074 11.4428 20.2074 11.7053C20.2074 12.2561 20.6618 12.7043 21.2267 12.7106H21.6652C22.2281 12.7106 22.6844 12.2657 22.6844 11.7169C22.6844 11.1681 22.2281 10.7232 21.6652 10.7232ZM13.843 5.18825H6.31704C5.75871 5.18822 5.30427 5.62613 5.29778 6.17044C5.29778 6.72117 5.7522 7.1694 6.31704 7.17573H13.843C14.4059 7.17573 14.8622 6.73082 14.8622 6.18199C14.8622 5.63317 14.4059 5.18825 13.843 5.18825Z" fill="black"/>
</svg>
