<svg width="34" height="34" viewBox="0 0 34 34" fill="none" xmlns="http://www.w3.org/2000/svg">
<path d="M22.7495 3.30054C22.6828 3.71721 22.6495 4.13387 22.6495 4.55054C22.6495 8.30054 25.6828 11.3322 29.4161 11.3322C29.8328 11.3322 30.2328 11.2839 30.6495 11.2172V24.6655C30.6495 30.3172 27.3161 33.6672 21.6495 33.6672H9.33448C3.66614 33.6672 0.332809 30.3172 0.332809 24.6655V12.3339C0.332809 6.66721 3.66614 3.30054 9.33448 3.30054H22.7495ZM23.0845 13.4339C22.6328 13.3839 22.1845 13.5839 21.9161 13.9505L17.8845 19.1672L13.2661 15.5339C12.9828 15.3172 12.6495 15.2322 12.3161 15.2672C11.9845 15.3172 11.6845 15.4989 11.4828 15.7655L6.55114 22.1839L6.44948 22.3339C6.16614 22.8655 6.29948 23.5489 6.79948 23.9172C7.03281 24.0672 7.28281 24.1672 7.56614 24.1672C7.95114 24.1839 8.31614 23.9822 8.54948 23.6672L12.7328 18.2822L17.4828 21.8505L17.6328 21.9489C18.1661 22.2322 18.8328 22.1005 19.2161 21.5989L24.0328 15.3839L23.9661 15.4172C24.2328 15.0505 24.2828 14.5839 24.0995 14.1672C23.9178 13.7505 23.5161 13.4672 23.0845 13.4339ZM29.6496 0.333374C31.8663 0.333374 33.6663 2.13337 33.6663 4.35004C33.6663 6.56671 31.8663 8.36671 29.6496 8.36671C27.433 8.36671 25.633 6.56671 25.633 4.35004C25.633 2.13337 27.433 0.333374 29.6496 0.333374Z" fill="#4062FF"/>
</svg>
