<svg width="16" height="16" viewBox="0 0 16 16" fill="none" xmlns="http://www.w3.org/2000/svg">
<path d="M8.754 4.91289C8.79267 4.95056 8.958 5.09279 9.094 5.22528C9.94933 6.00203 11.3493 8.02833 11.7767 9.08889C11.8453 9.24996 11.9907 9.65717 12 9.87474C12 10.0832 11.952 10.2819 11.8547 10.4716C11.7187 10.708 11.5047 10.8976 11.252 11.0015C11.0767 11.0684 10.552 11.1723 10.5427 11.1723C9.96867 11.2763 9.036 11.3334 8.00533 11.3334C7.02333 11.3334 6.12867 11.2763 5.546 11.1912C5.53667 11.1814 4.88467 11.0775 4.66133 10.9639C4.25333 10.7554 4 10.3482 4 9.9124V9.87474C4.01 9.59092 4.26333 8.99407 4.27267 8.99407C4.70067 7.99066 6.032 6.01112 6.91667 5.21554C6.91667 5.21554 7.144 4.99148 7.286 4.89406C7.49 4.74208 7.74267 4.66675 7.99533 4.66675C8.27733 4.66675 8.54 4.75183 8.754 4.91289Z" fill="white"/>
</svg>
