<svg width="16" height="17" viewBox="0 0 16 17" fill="none" xmlns="http://www.w3.org/2000/svg">
<path d="M8.754 5.41289C8.79267 5.45056 8.958 5.59279 9.094 5.72528C9.94933 6.50203 11.3493 8.52833 11.7767 9.58889C11.8453 9.74996 11.9907 10.1572 12 10.3747C12 10.5832 11.952 10.7819 11.8547 10.9716C11.7187 11.208 11.5047 11.3976 11.252 11.5015C11.0767 11.5684 10.552 11.6723 10.5427 11.6723C9.96867 11.7763 9.036 11.8334 8.00533 11.8334C7.02333 11.8334 6.12867 11.7763 5.546 11.6912C5.53667 11.6814 4.88467 11.5775 4.66133 11.4639C4.25333 11.2554 4 10.8482 4 10.4124V10.3747C4.01 10.0909 4.26333 9.49407 4.27267 9.49407C4.70067 8.49066 6.032 6.51112 6.91667 5.71554C6.91667 5.71554 7.144 5.49148 7.286 5.39406C7.49 5.24208 7.74267 5.16675 7.99533 5.16675C8.27733 5.16675 8.54 5.25183 8.754 5.41289Z" fill="#6DD64D"/>
</svg>
