<svg width="16" height="17" viewBox="0 0 16 17" fill="none" xmlns="http://www.w3.org/2000/svg">
<path d="M7.246 11.5873C7.20733 11.5496 7.042 11.4074 6.906 11.2749C6.05067 10.4981 4.65067 8.47183 4.22333 7.41127C4.15467 7.2502 4.00933 6.84299 4 6.62543C4 6.41695 4.048 6.21822 4.14533 6.02858C4.28133 5.79217 4.49533 5.60253 4.748 5.49862C4.92333 5.43173 5.448 5.32781 5.45733 5.32781C6.03133 5.2239 6.964 5.16675 7.99467 5.16675C8.97667 5.16675 9.87133 5.2239 10.454 5.30898C10.4633 5.31872 11.1153 5.42263 11.3387 5.53629C11.7467 5.74476 12 6.15197 12 6.58776V6.62543C11.99 6.90924 11.7367 7.50609 11.7273 7.50609C11.2993 8.5095 9.968 10.489 9.08333 11.2846C9.08333 11.2846 8.856 11.5087 8.714 11.6061C8.51 11.7581 8.25733 11.8334 8.00467 11.8334C7.72267 11.8334 7.46 11.7483 7.246 11.5873Z" fill="#FF4842"/>
</svg>
