<svg width="12" height="18" viewBox="0 0 12 18" fill="none" xmlns="http://www.w3.org/2000/svg">
<path d="M6.3607 10.1634L6.00661 10.165C4.53497 10.165 3.19332 10.0788 2.31871 9.94897L1.77483 9.83524C1.48678 9.77197 1.1588 9.68879 0.991371 9.60207C0.378924 9.28461 0 8.66389 0 7.99954V7.94172C0.0143198 7.50864 0.394346 6.59883 0.407564 6.59883C1.02183 5.13485 2.87572 2.31046 4.19739 1.006L4.59419 0.626929C4.70173 0.527664 4.82901 0.41614 4.92822 0.346905C5.23444 0.115635 5.61337 0 5.99229 0C6.41527 0 6.80852 0.129817 7.13016 0.375268L7.55047 0.764728L7.64017 0.85199C8.92344 2.03561 11.0218 5.12612 11.664 6.74283L11.7576 6.98692C11.8629 7.28064 11.9884 7.69218 12 7.94172C12 8.25917 11.9262 8.56244 11.7808 8.85153C11.577 9.21262 11.2554 9.50061 10.8764 9.65988C10.6143 9.76134 9.82669 9.92061 9.81237 9.92061C9.01826 10.0666 7.76518 10.1513 6.3607 10.1634ZM5.99956 18C5.1613 18 4.48166 17.3269 4.48166 16.4967L4.80881 12.7975C4.80881 12.1463 5.34195 11.6183 5.99956 11.6183C6.65827 11.6183 7.19031 12.1463 7.19031 12.7975L7.51746 16.4967C7.51746 17.3269 6.83782 18 5.99956 18Z" fill="white"/>
</svg>
