<svg width="88" height="88" viewBox="0 0 88 88" fill="none" xmlns="http://www.w3.org/2000/svg">
<g filter="url(#filter0_d_140_87)">
<rect x="20" y="20" width="48" height="48" rx="16" fill="#F0B90B"/>
</g>
<g clip-path="url(#clip0_140_87)">
<path d="M48.624 45.92L51.341 48.636L43.988 55.989L36.636 48.637L39.353 45.92L43.989 50.58L48.624 45.92ZM53.261 41.284L56 44L53.285 46.716L50.568 44L53.261 41.284ZM43.989 41.284L46.705 43.976L43.988 46.693L41.272 44L43.988 41.285L43.989 41.284ZM34.716 41.284L37.41 44L34.718 46.692L32 44L34.716 41.284ZM43.99 32.01L51.342 39.34L48.625 42.055L43.989 37.419L39.354 42.079L36.637 39.363L43.989 32.011L43.99 32.01Z" fill="white"/>
</g>
<defs>
<filter id="filter0_d_140_87" x="0" y="0" width="88" height="88" filterUnits="userSpaceOnUse" color-interpolation-filters="sRGB">
<feFlood flood-opacity="0" result="BackgroundImageFix"/>
<feColorMatrix in="SourceAlpha" type="matrix" values="0 0 0 0 0 0 0 0 0 0 0 0 0 0 0 0 0 0 127 0" result="hardAlpha"/>
<feOffset/>
<feGaussianBlur stdDeviation="10"/>
<feComposite in2="hardAlpha" operator="out"/>
<feColorMatrix type="matrix" values="0 0 0 0 0.5586 0 0 0 0 0.560629 0 0 0 0 0.57 0 0 0 0.04 0"/>
<feBlend mode="normal" in2="BackgroundImageFix" result="effect1_dropShadow_140_87"/>
<feBlend mode="normal" in="SourceGraphic" in2="effect1_dropShadow_140_87" result="shape"/>
</filter>
<clipPath id="clip0_140_87">
<rect width="24" height="24" fill="white" transform="translate(32 32)"/>
</clipPath>
</defs>
</svg>
