<svg xmlns="http://www.w3.org/2000/svg" viewBox="0 0 48 48"><defs><style>.cls-1{fill:#ef8e19;}.cls-2{fill:#fff;}</style></defs><title>Asset 1</title><g id="Layer_2" data-name="Layer 2"><g id="Layer_1-2" data-name="Layer 1"><rect class="cls-1" width="48" height="48" rx="16"/><path class="cls-2" d="M20.25,31.5v1.88a.38.38,0,0,0,.38.37h1.5a.38.38,0,0,0,.37-.37V31.5h.75v1.88a.38.38,0,0,0,.38.37h1.5a.38.38,0,0,0,.37-.37V31.5h.13c3,0,5.12-1.55,5.12-4.23a3.48,3.48,0,0,0-3.28-3.66v-.13A3.18,3.18,0,0,0,30,20.19c0-2.29-1.73-3.69-4.36-3.69H25.5V14.63a.39.39,0,0,0-.11-.27.38.38,0,0,0-.26-.11h-1.5a.38.38,0,0,0-.38.38V16.5h-.86V14.63a.39.39,0,0,0-.11-.27.36.36,0,0,0-.26-.11H20.63a.38.38,0,0,0-.38.38V16.5l-3,0a.38.38,0,0,0-.37.37v1.49a.37.37,0,0,0,.37.37h1.13a1.11,1.11,0,0,1,.79.33,1.15,1.15,0,0,1,.33.8v8.26a1.13,1.13,0,0,1-1.12,1.12l-1.13,0a.38.38,0,0,0-.37.37v1.5a.38.38,0,0,0,.37.38Zm2.14-12.77H25a1.91,1.91,0,0,1,2.16,2c0,1.31-.87,2-2.82,2H22.39Zm0,6.08h2.76c1.71,0,2.63.87,2.63,2.28s-.93,2.18-3.23,2.18H22.39V24.81Z"/></g></g></svg>