<svg xmlns="http://www.w3.org/2000/svg" viewBox="0 0 48 48"><defs><style>.cls-1{fill:#636890;}.cls-2{fill:#fff;}</style></defs><title>Asset 1</title><g id="Layer_2" data-name="Layer 2"><g id="Layer_1-2" data-name="Layer 1"><rect class="cls-1" width="48" height="48" rx="16"/><path class="cls-2" d="M32.84,23.54,24.59,13a.75.75,0,0,0-.26-.21.72.72,0,0,0-.66,0,.75.75,0,0,0-.26.21l-8.25,10.5a.74.74,0,0,0,0,.92L23.41,35a.75.75,0,0,0,.26.21.72.72,0,0,0,.66,0,.75.75,0,0,0,.26-.21l8.25-10.5a.74.74,0,0,0,0-.92Zm-8.09-7.87,6.32,8-6.32,2.88Zm-1.5,10.92-6.32-2.88,6.32-8Zm0,1.65v4.09l-5-6.37Zm1.5,0,5-2.28-5,6.37Z"/></g></g></svg>