<svg width="32" height="32" viewBox="0 0 32 32" fill="none" xmlns="http://www.w3.org/2000/svg">
<path d="M15.3236 2.66663C18.6337 2.66663 21.3333 5.31996 21.3333 8.58663V14.9733H13.1938C12.6105 14.9733 12.1492 15.4266 12.1492 16C12.1492 16.56 12.6105 17.0266 13.1938 17.0266H21.3333V23.4C21.3333 26.6666 18.6337 29.3333 15.2965 29.3333H8.68992C5.36628 29.3333 2.66667 26.68 2.66667 23.4133V8.59996C2.66667 5.31996 5.37985 2.66663 8.70349 2.66663H15.3236ZM24.7203 11.4002C25.1203 10.9869 25.7736 10.9869 26.1736 11.3869L30.0669 15.2669C30.2669 15.4669 30.3736 15.7202 30.3736 16.0002C30.3736 16.2669 30.2669 16.5336 30.0669 16.7202L26.1736 20.6002C25.9736 20.8002 25.7069 20.9069 25.4536 20.9069C25.1869 20.9069 24.9203 20.8002 24.7203 20.6002C24.3203 20.2002 24.3203 19.5469 24.7203 19.1469L26.8536 17.0269H21.3336V14.9736H26.8536L24.7203 12.8536C24.3203 12.4536 24.3203 11.8002 24.7203 11.4002Z" fill="#FF4842"/>
</svg>
