<svg width="24" height="24" viewBox="0 0 24 24" fill="none" xmlns="http://www.w3.org/2000/svg">
<path d="M20.8406 11.5406L12.5906 1.04057C12.5205 0.95093 12.4308 0.878433 12.3285 0.828576C12.2262 0.778718 12.1138 0.752808 12 0.752808C11.8862 0.752808 11.7738 0.778718 11.6715 0.828576C11.5692 0.878433 11.4795 0.95093 11.4094 1.04057L3.15937 11.5406C3.05435 11.6706 2.99707 11.8328 2.99707 11.9999C2.99707 12.1671 3.05435 12.3293 3.15937 12.4593L11.4094 22.9593C11.4795 23.049 11.5692 23.1215 11.6715 23.1713C11.7738 23.2212 11.8862 23.2471 12 23.2471C12.1138 23.2471 12.2262 23.2212 12.3285 23.1713C12.4308 23.1215 12.5205 23.049 12.5906 22.9593L20.8406 12.4593C20.9456 12.3293 21.0029 12.1671 21.0029 11.9999C21.0029 11.8328 20.9456 11.6706 20.8406 11.5406V11.5406ZM12.75 3.66557L19.0687 11.7093L12.75 14.5874V3.66557ZM11.25 14.5874L4.93125 11.7093L11.25 3.66557V14.5874ZM11.25 16.2374V20.3343L6.24375 13.9593L11.25 16.2374ZM12.75 16.2374L17.7562 13.9593L12.75 20.3343V16.2374Z" fill="white"/>
</svg>
