<svg width="24" height="24" viewBox="0 0 24 24" fill="none" xmlns="http://www.w3.org/2000/svg">
<path d="M17.3 12.8294C18.5124 12.8294 19.6102 12.8983 20.2855 13.0265C20.296 13.0265 20.9139 13.1536 21.1199 13.2356C21.4172 13.3639 21.6688 13.5955 21.8291 13.8853C21.9438 14.1169 22 14.3616 22 14.617C21.9895 14.883 21.8174 15.3831 21.7367 15.5802C21.2346 16.8797 19.5868 19.3633 18.5815 20.3158C18.4211 20.4774 18.2269 20.652 18.1812 20.6983C17.9284 20.8955 17.6206 21 17.2894 21C16.991 21 16.6937 20.9074 16.4538 20.7209C16.3292 20.6318 16.1473 20.4545 16.0641 20.3715L16.0196 20.3265C14.978 19.3526 13.4121 16.926 12.9089 15.6955C12.8982 15.6955 12.6475 15.0816 12.5968 14.7113L12.5882 14.617V14.5706C12.5882 14.0361 12.8855 13.5373 13.3665 13.2819C13.6298 13.1429 14.3952 13.0147 14.4069 13.0028C15.0927 12.8983 16.1449 12.8294 17.3 12.8294ZM6.70553 12.8905C7.18478 12.8905 7.57926 13.2561 7.63317 13.7277L7.63945 13.8383L7.89575 18.4171C7.89575 19.0846 7.36325 19.625 6.70553 19.625C6.08892 19.625 5.58133 19.15 5.52029 18.5406L5.51414 18.4171L5.77161 13.8383C5.77161 13.3146 6.18942 12.8905 6.70553 12.8905ZM6.71173 3C7.00783 3 7.30509 3.09264 7.54618 3.27793C7.65004 3.35291 7.79368 3.48866 7.88681 3.57993L7.98037 3.67345C9.02079 4.64858 10.5879 7.07394 11.0911 8.30444C11.1008 8.30444 11.3523 8.91922 11.4032 9.28974L11.4118 9.38409V9.43041C11.4118 9.96371 11.1133 10.4626 10.6335 10.7179C10.3702 10.8581 9.60478 10.9852 9.59308 10.997C8.90727 11.1016 7.85514 11.1704 6.70003 11.1704C5.48757 11.1704 4.38981 11.1016 3.71453 10.9733C3.70282 10.9733 3.08606 10.8462 2.88009 10.7642C2.58282 10.6372 2.3312 10.4044 2.17087 10.1145C2.05618 9.88294 2 9.63827 2 9.38409C2.01053 9.11685 2.18257 8.618 2.26215 8.42083C2.76539 7.12026 4.41204 4.6367 5.41852 3.68532C5.57886 3.5226 5.77313 3.34801 5.81877 3.30169C6.0704 3.10452 6.37936 3 6.71173 3ZM17.2947 4.375C17.9113 4.375 18.4179 4.84999 18.4788 5.45938L18.4849 5.58295L18.2286 10.1618C18.2286 10.6856 17.8108 11.1096 17.2947 11.1096C16.8155 11.1096 16.421 10.744 16.3671 10.2724L16.3608 10.1618L16.1033 5.58295C16.1033 4.91543 16.637 4.375 17.2947 4.375Z" fill="white"/>
</svg>
